<?xml version="1.0" encoding="utf-8"?>
<!-- Generator: Adobe Illustrator 19.1.0, SVG Export Plug-In . SVG Version: 6.00 Build 0)  -->
<svg version="1.1" xmlns="http://www.w3.org/2000/svg" xmlns:xlink="http://www.w3.org/1999/xlink" x="0px" y="0px"
	 viewBox="0 0 400 300" style="enable-background:new 0 0 400 300;" xml:space="preserve">
<style type="text/css">
	.st0{fill:url(#SVGID_1_);}
	.st1{fill:url(#SVGID_2_);}
	.st2{fill:url(#SVGID_3_);}
	.st3{fill:url(#SVGID_4_);}
	.st4{fill:url(#SVGID_5_);}
	.st5{fill:url(#SVGID_6_);}
	.st6{fill:url(#SVGID_7_);}
	.st7{fill:#FF00FF;}
	.st8{fill:#FF00FF;stroke:#FF00FF;stroke-miterlimit:10;}
	.st9{display:none;}
</style>
<g id="Layer_1">
</g>
<g id="MN84">
	<g id="college">
		<path class="st7" d="M76.6,152.7c-2.5,0-3.8-1.1-3.8-3.2c0.1-1,1-2.5,2.6-4.4c1.6-1.9,4-6,7.1-12.3c6.7-13.7,10.1-24.8,10.1-33.1
			c0-1.5-0.4-3.1-1.3-4.9c-1.9-3.9-4.2-5.9-7-5.9c-9.4,0.2-21.7,25.6-36.9,76.3c-4.1,13.4-6.1,26.5-6.1,39.3c0,3.6,0.8,7.4,2.4,11.2
			c3.2,7.5,7.9,11.2,14.2,11.2c11.1,0,22.4-4.5,34-13.5c4.1-3.2,10.2-8.2,18.2-15.1c8-6.8,12.4-10.3,13.2-10.3
			c0.4,0.1,0.7,0.5,0.8,1.3c-0.1,6.8-8.1,17.3-23.9,31.4c-13.3,11.5-26.7,17.2-40.3,17.2c-9.6,0-17.2-2.4-22.7-7.1
			c-7.4-6.4-11.1-18.4-11.1-36s4.3-37.9,13-61.1s20.2-41.4,34.6-54.7c3.3-2.9,6.6-4.4,10.1-4.4c16.6,0,24.9,5.1,24.9,15.3
			c0,5.8-4.5,17.7-13.4,35.7C86.3,143.7,80.1,152.7,76.6,152.7z"/>
		<path class="st7" d="M140.2,145.9c1.6,0,2.9,0.4,4,1.3c2,1.7,2.9,4.9,2.9,9.8c0,22.1-3.9,38.6-11.8,49.6l-1.2,1.8
			c-4.9,7.1-8.8,10.6-11.8,10.6c-3.7-0.4-5.8-3.1-6.3-8c0-4.1,1.7-12.4,5-24.9c3.3-12.5,7.2-23.4,11.5-32.5
			C135.1,148.5,137.7,145.9,140.2,145.9z M141.6,156.3c-2.8,0.4-6.4,7.5-10.9,21.1c-4.4,13.6-6.7,21.6-6.7,24.1
			c0,2.5,0.2,3.7,0.7,3.7c2.4,0,6-5.1,11-15.2s7.5-19.4,7.5-27.8C143.3,158.3,142.7,156.4,141.6,156.3z"/>
		<path class="st7" d="M238.4,180.8c-1.5-0.8-2.9,0-4.2,2.4c-4.3,7.3-8.1,12.5-11.2,15.7c-3.2,3.2-7.1,4.8-11.8,4.8
			c-6,0-10.4-4.7-13.5-14.2c-1.8-5.6-2.7-11.5-2.7-17.6c0-17.1,2.8-32.8,8.5-47.1c2.4-5.8,5.1-11,8.1-15.5c12-21.4,20-36.4,24-45
			s6-14.9,6-18.9c-0.1-6.4-3.5-9.6-10.2-9.7c-4.7,0-9.1,5-13.1,14.9c-5.8,13.7-13.9,40.7-24.4,81l-0.8,3.3
			c-3.3,12.6-4.9,24.7-4.9,36.4c0,9.6,1.1,17.4,3.3,23.5c-3.3,5.6-0.8,0.6-3.7,3.7c-3.2,3.3-7.1,4.9-11.8,4.9
			c-6,0-10.4-4.9-13.5-14.6c-1.8-5.8-2.7-11.9-2.7-18.1c0-17.7,2.8-33.9,8.5-48.6c2.4-6,3.8-15,6.8-19.7
			c12-22.1,18.2-37.4,22.2-46.3c4-8.9,6-15.4,6-19.5c-0.1-6.6-0.4-6.4-7.1-6.4c-4.7,0-9.1,5.1-13.1,15.3
			c-5.8,14.2-13.9,42-24.4,83.6l-0.8,3.4c-3.3,13-4.9,25.5-4.9,37.5c0,27.4,8.4,41.1,25.2,41.1c5.7,0,11.6-2.6,17.9-7.8c0,0,0,0,0,0
			c4.1,5.2,9.9,7.8,17.4,7.8c5.7,0,11.6-2.5,17.9-7.5c6.3-5,9.4-11.1,9.4-18.1C240.6,183,239.8,181.5,238.4,180.8z M219.3,70.4
			c6-14.4,9.9-22.4,11.8-23.9c0.1-0.2,0.4-0.2,0.8-0.2c0.4,0,0.6,0.3,0.7,0.9c0.1,0.6-3.4,8.9-10.3,25.1
			c-6.9,16.2-10.8,24.3-11.7,24.4c-0.1-0.2-0.2-0.3-0.2-0.6C210.3,93.4,213.3,84.9,219.3,70.4z M184,65.9c6-14.9,9.9-23.1,11.8-24.7
			c0.1-0.2,0.4-0.2,0.8-0.2c0.4,0,0.6,0.3,0.7,0.9c0.1,0.6-3.4,9.2-10.3,25.9C179.9,84.5,176,92.9,175.2,93
			c-0.1-0.2-0.2-0.3-0.2-0.6C175,89.6,178,80.8,184,65.9z"/>
		<path class="st7" d="M257.6,156.1c2.8-3,4.4-3.5,4.7-1.6c0,0.7-0.4,1.9-1.3,3.6c-2.7,5.1-6.9,10.6-12.5,16.3
			c-8.9,9.1-16.7,13.7-23.5,13.7c-3.2,0-6-0.9-8.3-2.8c-4.3-3.6-6.4-9.7-6.4-18.6c0-5,1.5-12,4.6-21c3-9,7.7-17.2,14.1-24.6
			c2.8-3.6,5.7-5.4,8.7-5.4c1.4,0,2.8,0.3,4.3,0.9c3.5,1.5,5.2,4,5.2,7.3c0,0.5-0.2,1.3-0.5,2.4c-2.3,4.5-5.9,9.8-10.9,15.7
			c-5,5.9-10.1,10.7-15.2,14.2c-1.8,6.5-2.7,11.6-2.7,15.2c0,3.6,0.1,6,0.3,7c0.5,2.4,2.4,3.5,5.7,3.5s7-1.5,11.2-4.5
			c4.2-3,8.6-7,13.4-11.9c4.7-4.9,7.4-7.7,8.1-8.3C257,156.7,257.4,156.3,257.6,156.1z M224.6,143.5c1.1-0.2,3.6-2.6,7.3-7.2
			c3.7-4.6,5.6-8.3,5.6-10.9c0-0.4-0.1-0.8-0.4-1.3c-1.1,1.1-3.5,4.3-7.1,9.6C226.4,138.9,224.6,142.2,224.6,143.5z"/>
		<path class="st7" d="M292.4,159.7v-0.4c0.4-4.1,0.7-6.3,0.7-6.7c-0.1-1.3-0.9-2-2.4-2c-1.6,0-3.3,0.6-5.2,1.8
			c-1.9,1.2-6,4.5-12.4,9.8c-6.4,5.3-11.7,8-16,8c-1.3,0-3-0.9-5-2.7c-3.8-3.6-3.9-8.7-0.3-15.2c2.8-4.7,7.6-10.7,14.2-17.9
			l15.3-16.8c11-11.9,18.1-17.8,21.6-17.7c3.4,0.1,6.8,3,10.1,8.8c-1.4,1.2-2.3,4.1-2.8,8.9c0.1-0.1,0.4-0.1,1-0.1
			c0.6,0,1.2,0.2,1.8,0.7c0.6,0.5,0.9,2.3,0.9,5.7c0,3.3-0.2,5-0.7,5.1c-0.8,0-2.4,1.6-4.8,4.8c-2.4,3.2-4.2,6.1-5.4,8.8
			c-1.1,12.8-2.9,27.8-5.6,45c-5.6,36.5-11.6,62-17.9,76.4c-1.9,4.3-4.2,8.4-7,12.5c-6.2,8.7-11.8,13.1-17,13.1
			c-2.5,0-3.7-0.9-3.7-2.6c0.1-0.7,0.9-1.3,2.4-1.8c1.5-0.5,3.3-1.6,5.2-3.3c4-3.5,7.2-8.3,9.8-14.2c4.7-10.9,8.7-24.2,12-39.9
			S288.4,189.3,292.4,159.7z M307.9,117.5c-0.8-2.8-1.9-4.2-3.3-4.2c-0.4,0-0.7,0.1-0.9,0.2c-4.9,2.8-11.7,8.4-20.3,16.9
			s-13.2,14.6-13.4,18.4c0.1,0.7,0.4,1.2,1,1.4c1.7,0,4.9-2,9.6-6c4.7-4,7.3-6.2,7.8-6.5c0.4-0.2,1.2-0.9,2.4-1.9l2.4-2.1
			C302.5,126.1,307.4,120.7,307.9,117.5z"/>
		<path class="st7" d="M365.4,128.2c2.8-3,4.4-3.5,4.7-1.6c0,0.7-0.4,1.9-1.3,3.6c-2.7,5.1-6.9,10.6-12.5,16.3
			c-8.9,9.1-16.7,13.7-23.5,13.7c-3.2,0-6-0.9-8.3-2.8c-4.3-3.6-6.4-9.7-6.4-18.6c0-5,1.5-12,4.6-21c3-9,7.7-17.2,14.1-24.6
			c2.8-3.6,5.7-5.4,8.7-5.4c1.4,0,2.8,0.3,4.3,0.9c3.5,1.5,5.2,4,5.2,7.3c0,0.5-0.2,1.3-0.5,2.4c-2.3,4.5-5.9,9.8-10.9,15.7
			c-5,5.9-10.1,10.7-15.2,14.2c-1.8,6.5-2.7,11.6-2.7,15.2c0,3.6,0.1,6,0.3,7c0.5,2.4,2.4,3.5,5.7,3.5s7-1.5,11.2-4.5
			c4.2-3,8.6-7,13.4-11.9c4.7-4.9,7.4-7.7,8.1-8.3C364.8,128.8,365.2,128.4,365.4,128.2z M332.4,115.7c1.1-0.2,3.6-2.6,7.3-7.2
			c3.7-4.6,5.6-8.3,5.6-10.9c0-0.4-0.1-0.8-0.4-1.3c-1.1,1.1-3.5,4.3-7.1,9.6C334.2,111,332.4,114.3,332.4,115.7z"/>
		<path class="st7" d="M58.9,269.1c21.7-10.8,205.7-70,211-68.9c5.4,1.1,4.4,8.7,0,10.9C265.5,213.2,58.9,269.1,58.9,269.1z"/>
		<path class="st7" d="M314,185.6c5.1-4.9,49.1-21.1,51.8-21.1c2.7,0-44.4,30.2-51.8,30.3C306.7,194.8,314,185.6,314,185.6z"/>
	</g>
</g>
<g id="Guides" class="st9">
</g>
</svg>
