<?xml version="1.0" encoding="utf-8"?>
<!-- Generator: Adobe Illustrator 19.1.0, SVG Export Plug-In . SVG Version: 6.00 Build 0)  -->
<svg version="1.1" xmlns="http://www.w3.org/2000/svg" xmlns:xlink="http://www.w3.org/1999/xlink" x="0px" y="0px"
	 viewBox="0 0 400 300" style="enable-background:new 0 0 400 300;" xml:space="preserve">
<style type="text/css">
	.st0{fill:url(#SVGID_1_);}
	.st1{fill:url(#SVGID_2_);}
	.st2{fill:url(#SVGID_3_);}
	.st3{fill:url(#SVGID_4_);}
	.st4{fill:url(#SVGID_5_);}
	.st5{fill:url(#SVGID_6_);}
	.st6{fill:url(#SVGID_7_);}
	.st7{fill:#FF00FF;}
	.st8{fill:#FF00FF;stroke:#FF00FF;stroke-miterlimit:10;}
	.st9{display:none;}
</style>
<g id="Layer_1">
</g>
<g id="MN84">
	<g id="com-umbrella">
		<path class="st7" d="M197.7,130.4c40.1,0,72.6,30.6,72.6,72.6h31.1c0-60-46.5-103.7-103.7-103.7S93.9,143,93.9,203H125
			C125,161,157.5,130.4,197.7,130.4z"/>
		<path class="st7" d="M88.6,203c0.6-61,49.6-108.8,109.9-108.8c60.3,0,109.3,47.8,109.9,108.8H345c-0.6-81-66-145.4-146.5-145.4
			S52.6,122,52,203H88.6z"/>
		<path class="st7" d="M47.3,202c0.5-85,68-150.4,151.2-150.4S349.2,117,349.7,202h37.8C387,98,302.6,13.8,198.5,13.8
			S9.9,98,9.5,202H47.3z"/>
	</g>
	<g id="com-truise">
		<path class="st7" d="M49.7,264.1c-4.6,2.3-8.3,2.8-11.4,2.8c-9.5,0-16-3.3-20.3-7.5c-4.7-4.5-8.1-11.3-8.1-19.6
			c0-8.1,3.4-15,8.1-19.5c4.6-4.4,11.3-7.4,19.3-7.4c3.4,0,7.4,0.7,12.4,2.9v13.8c-2.6-2.8-6.6-5.5-12.1-5.5c-4.3,0-7.8,1.4-10.6,4
			c-2.9,2.8-4.9,7-4.9,12c0,5.4,2.2,9.2,4.5,11.4c1.1,1.1,4.8,4.3,11.2,4.3c3.1,0,7.3-0.9,11.9-5.4V264.1z"/>
		<path class="st7" d="M99.2,220.3c4.9,4.7,8.1,11.6,8.1,19.6c0,6.9-2.5,14-8.1,19.4c-4.8,4.7-11.3,7.6-20,7.6
			c-9.7,0-16.3-3.9-20.2-7.6c-5-4.7-8.1-11.6-8.1-19.2c0-7.4,3.3-15,8-19.6c3.5-3.5,9.9-7.6,20.3-7.6
			C87.3,212.8,94,215.3,99.2,220.3z M67.8,228.3c-2.2,2.2-4.6,6-4.6,11.7c0,4.7,1.6,8.5,4.7,11.6c3.3,3.2,7.1,4.3,11.1,4.3
			c5.3,0,9-1.9,11.5-4.4c2-1.9,4.5-5.6,4.5-11.6c0-5.4-2.2-9.3-4.5-11.6c-2.6-2.5-6.7-4.4-11.4-4.4
			C74.6,223.8,70.6,225.5,67.8,228.3z"/>
		<path class="st7" d="M106.7,265.7L115,214h9.9l12.9,31l12.9-31h9.9l8.3,51.8H157l-4.1-30.9l-13,30.9h-4.2l-13-30.9l-4.1,30.9
			H106.7z"/>
		<path class="st7" d="M233.6,214c6.6,0,10.7,2.2,13.2,4.5c2.2,2.1,4.5,5.8,4.5,11.6c0,3.3-0.7,7.3-4,10.6c-1.8,1.7-4.3,3.3-7.2,4
			l15.9,21.2h-14.6l-14-20.4v20.4h-11.9V214H233.6z M227.4,237.5h2.7c2.2,0,5.1-0.2,7.1-2.3c0.9-0.9,1.9-2.5,1.9-5
			c0-2.9-1.4-4.5-2.4-5.3c-1.9-1.5-5-1.6-6.6-1.6h-2.8V237.5z"/>
		<path class="st7" d="M299.2,244.6c0,5-0.6,11.1-5.7,16.4c-5,5.1-10.7,5.9-16.1,5.9c-5.4,0-11.2-0.8-16.1-5.9
			c-5.1-5.3-5.7-11.4-5.7-16.4V214h11.9v30.3c0,2.3,0.2,6.1,2.7,8.7c2.1,2.3,5,2.7,7.2,2.7c2.3,0,5.1-0.5,7.2-2.7
			c2.6-2.6,2.7-6.4,2.7-8.7V214h12V244.6z"/>
		<path class="st7" d="M315.6,214v51.8h-12V214H315.6z"/>
		<path class="st7" d="M348.1,226.6c-3.9-3.5-7.2-3.7-8.7-3.7c-1.6,0-3.6,0.2-5,1.8c-0.8,0.8-1.3,1.9-1.3,3.3c0,1.2,0.4,2.2,1.2,2.9
			c1.2,1.2,3,1.6,6.5,2.9l3.9,1.5c2.2,0.9,5,2,7.1,4c3,2.9,3.8,6.6,3.8,9.6c0,5.4-1.9,10-4.6,12.8c-4.6,4.8-11.3,5.3-14.7,5.3
			c-3.7,0-7-0.5-10.2-2.2c-2.6-1.3-5.7-3.7-7.6-5.7l6.2-8.5c1.3,1.3,3.4,3.1,4.8,4c2,1.2,4.1,1.9,6.5,1.9c1.6,0,3.7-0.3,5.4-1.8
			c1-0.9,1.9-2.3,1.9-4.2c0-1.7-0.7-2.8-1.8-3.7c-1.4-1.2-4.6-2.3-6.1-2.9l-4.3-1.5c-2.4-0.9-5.2-1.9-7.2-4.1
			c-2.7-2.9-3.1-6.5-3.1-9c0-4.6,1.4-8.5,4.5-11.6c3.6-3.7,8-4.7,12.8-4.7c3.6,0,9.3,0.6,15.4,5.1L348.1,226.6z"/>
		<path class="st7" d="M387.5,224.1h-17.3v10h16.5v10.1h-16.5v11.5h17.3v10.1h-29.3V214h29.3V224.1z"/>
		<polygon class="st7" points="212,214 189,214 189,225 201,225 201,266 212,266 212,225.3 212,224.1 		"/>
	</g>
</g>
<g id="Guides" class="st9">
</g>
</svg>
