<?xml version="1.0" encoding="utf-8"?>
<!-- Generator: Adobe Illustrator 19.1.0, SVG Export Plug-In . SVG Version: 6.00 Build 0)  -->
<svg version="1.1" xmlns="http://www.w3.org/2000/svg" xmlns:xlink="http://www.w3.org/1999/xlink" x="0px" y="0px"
	 viewBox="0 0 400 300" style="enable-background:new 0 0 400 300;" xml:space="preserve">
<style type="text/css">
	.st0{fill:url(#SVGID_1_);}
	.st1{fill:url(#SVGID_2_);}
	.st2{fill:url(#SVGID_3_);}
	.st3{fill:url(#SVGID_4_);}
	.st4{fill:url(#SVGID_5_);}
	.st5{fill:url(#SVGID_6_);}
	.st6{fill:url(#SVGID_7_);}
	.st7{fill:#FF00FF;}
	.st8{fill:#FF00FF;stroke:#FF00FF;stroke-miterlimit:10;}
	.st9{display:none;}
</style>
<g id="Layer_1">
</g>
<g id="MN84">
	<g id="LAZERHAWK">
		<path class="st7" d="M163.8,52.5c1.6,2.7,5.5,8.9,7,10.9l-1.6,35.3l-4.3,5.5l-11.2,4.7l2.6-6.6l-1-13.1L138.6,115L116,125.7
			L163.8,52.5z"/>
		<polygon class="st7" points="171.8,40.9 171.3,52 164.6,52 		"/>
		<polygon class="st7" points="230.2,51.6 224.2,51.6 223.5,41.5 		"/>
		<polygon class="st7" points="285.1,129.5 244.5,108.5 231.9,95 227.2,95 225.1,65.8 232.4,55.1 245.8,74.7 238,72.1 238,82 
			246,86 246,92.4 267.2,102.4 		"/>
		<polygon class="st7" points="183.8,30 186.6,33.6 189.3,32.9 182,48.7 177.8,52 218.9,52 214.9,49.3 204.2,25.8 207.4,26.7 
			217.4,4.4 187.2,29.4 		"/>
		<polygon class="st7" points="150.7,121 110.1,201.7 105.3,202.9 118,217.5 136.6,176.6 139.4,188.1 127.8,220 123.5,221.4 
			137.6,237.2 136,228 171.8,121 164.6,121 149,166.1 145.2,148.2 158.2,121 		"/>
		<path class="st7" d="M171.3,269.9l24.4,25.7l-3.8-10.5l0.6-164h-12l-35.6,116.9l-4.5,2l15.5,16.4l-1.8-9.2l4.7-14.5l18,23.6
			l-0.4,10.6L171.3,269.9z M162.8,213.5l20.1-74.5l-5.4,109.6L162.8,213.5z"/>
		<polygon class="st7" points="201.3,120.8 203.9,283.9 199,295.7 223.1,273.2 218.7,269.1 223.8,193.8 245,247.1 243.8,253.6 
			260.1,237.2 255.8,236.1 223.2,121 216.3,121 234.6,194.1 218.3,158.7 213.6,204 208.5,120.9 		"/>
		<polygon class="st7" points="233.2,120.9 264.5,228.9 263.6,234.8 278.7,219.9 274.2,217.7 262.8,188.1 264.2,167.8 283,210.1 
			283,215.9 295.9,203.4 291.1,201.4 270.2,160.3 264,159.9 264,149.8 252,121 246.5,121 256.6,146.5 255.4,163.1 240.3,120.8 		"/>
		<polygon class="st7" points="113.7,58 42.8,168.8 108.2,130.1 127.2,100 87.4,118.9 95.3,111 124.9,58 		"/>
		<path class="st7" d="M254.4,57.2l9.1,10.9l4.4,31.1l4.2,2.1L292,132c0,0-5-11.8-5-12.3S274.4,67,274.4,67h5.7l9,14h-6.6l42,67.2
			l32.8,21.4L298,80.1l5.9,0.1l-16.6-24L254.4,57.2z"/>
		<polygon class="st7" points="168.3,55 177.8,66 198.9,66 159.9,116 246,116 230.5,99.6 195.6,99.1 229.1,55 		"/>
	</g>
</g>
<g id="Guides" class="st9">
</g>
</svg>
