<?xml version="1.0" encoding="utf-8"?>
<!-- Generator: Adobe Illustrator 19.1.0, SVG Export Plug-In . SVG Version: 6.00 Build 0)  -->
<svg version="1.1" xmlns="http://www.w3.org/2000/svg" xmlns:xlink="http://www.w3.org/1999/xlink" x="0px" y="0px"
	 viewBox="0 0 349 349.7" style="enable-background:new 0 0 349 349.7;" xml:space="preserve">
<style type="text/css">
	.st0{fill:url(#SVGID_1_);}
	.st1{fill:url(#SVGID_2_);}
	.st2{fill:url(#SVGID_3_);}
	.st3{fill:url(#SVGID_4_);}
	.st4{fill:url(#SVGID_5_);}
	.st5{fill:url(#SVGID_6_);}
	.st6{fill:url(#SVGID_7_);}
	.st7{fill:#FF00FF;}
	.st8{fill:#FF00FF;stroke:#FF00FF;stroke-miterlimit:10;}
	.st9{display:none;}
</style>
<g id="Layer_1">
	<g>
		<linearGradient id="SVGID_1_" gradientUnits="userSpaceOnUse" x1="1.5225" y1="158.8269" x2="347.4591" y2="158.8269">
			<stop  offset="0" style="stop-color:#F15A24"/>
			<stop  offset="1" style="stop-color:#FCEE21"/>
		</linearGradient>
		<path class="st0" d="M344.9,144.8H4.1c-1.6,9-2.5,19-2.6,28h345.9C347.3,163.8,346.4,153.8,344.9,144.8z"/>
		<linearGradient id="SVGID_2_" gradientUnits="userSpaceOnUse" x1="1.6625" y1="195.8269" x2="347.3191" y2="195.8269">
			<stop  offset="0" style="stop-color:#F15A24"/>
			<stop  offset="1" style="stop-color:#FCEE21"/>
		</linearGradient>
		<path class="st1" d="M4.7,208.8h339.5c1.7-8,2.7-17,3.1-26H1.7C2,191.8,3.1,200.8,4.7,208.8z"/>
		<linearGradient id="SVGID_3_" gradientUnits="userSpaceOnUse" x1="51.3592" y1="304.8269" x2="297.6224" y2="304.8269">
			<stop  offset="0" style="stop-color:#F15A24"/>
			<stop  offset="1" style="stop-color:#FCEE21"/>
		</linearGradient>
		<path class="st2" d="M69.1,312.8h210.8c6.3-5,12.2-10,17.7-16H51.4C56.9,302.8,62.8,307.8,69.1,312.8z"/>
		<linearGradient id="SVGID_4_" gradientUnits="userSpaceOnUse" x1="102.125" y1="340.7412" x2="246.8566" y2="340.7412">
			<stop  offset="0" style="stop-color:#F15A24"/>
			<stop  offset="1" style="stop-color:#FCEE21"/>
		</linearGradient>
		<path class="st3" d="M174.5,348.7c25.8,0,50.3-5.8,72.4-15.8H102.1C124.1,342.8,148.7,348.7,174.5,348.7z"/>
		<linearGradient id="SVGID_5_" gradientUnits="userSpaceOnUse" x1="23.5147" y1="269.3269" x2="325.4669" y2="269.3269">
			<stop  offset="0" style="stop-color:#F15A24"/>
			<stop  offset="1" style="stop-color:#FCEE21"/>
		</linearGradient>
		<path class="st4" d="M35.9,278.8h277.3c4.5-6,8.6-12,12.3-19h-302C27.2,266.8,31.3,272.8,35.9,278.8z"/>
		<linearGradient id="SVGID_6_" gradientUnits="userSpaceOnUse" x1="5.7256" y1="69.4135" x2="343.256" y2="69.4135">
			<stop  offset="0" style="stop-color:#F15A24"/>
			<stop  offset="1" style="stop-color:#FCEE21"/>
		</linearGradient>
		<path class="st5" d="M174.5,2C92.1,2,23.1,59.8,5.7,136.8h337.5C325.9,59.8,256.9,2,174.5,2z"/>
		<linearGradient id="SVGID_7_" gradientUnits="userSpaceOnUse" x1="7.5512" y1="232.3269" x2="341.4304" y2="232.3269">
			<stop  offset="0" style="stop-color:#F15A24"/>
			<stop  offset="1" style="stop-color:#FCEE21"/>
		</linearGradient>
		<path class="st6" d="M15.6,243.8h317.8c3.2-7,5.9-15,8-23H7.6C9.7,228.8,12.4,236.8,15.6,243.8z"/>
	</g>
</g>
<g id="MN84">
</g>
<g id="Guides" class="st9">
</g>
</svg>
