<?xml version="1.0" encoding="utf-8"?>
<!-- Generator: Adobe Illustrator 19.1.0, SVG Export Plug-In . SVG Version: 6.00 Build 0)  -->
<svg version="1.1" xmlns="http://www.w3.org/2000/svg" xmlns:xlink="http://www.w3.org/1999/xlink" x="0px" y="0px"
	 viewBox="0 0 400 300" style="enable-background:new 0 0 400 300;" xml:space="preserve">
<style type="text/css">
	.st0{fill:url(#SVGID_1_);}
	.st1{fill:url(#SVGID_2_);}
	.st2{fill:url(#SVGID_3_);}
	.st3{fill:url(#SVGID_4_);}
	.st4{fill:url(#SVGID_5_);}
	.st5{fill:url(#SVGID_6_);}
	.st6{fill:url(#SVGID_7_);}
	.st7{fill:#FF00FF;}
	.st8{fill:#FF00FF;stroke:#FF00FF;stroke-miterlimit:10;}
	.st9{display:none;}
</style>
<g id="Layer_1">
</g>
<g id="MN84">
	<g id="mn84">
		<path class="st7" d="M64.8,13L30,43.8v137h43.9v-130h16.3v130H133v-130h16.3v130h43.9v-143c0-13.7-10.2-24.8-22.8-24.8H64.8z"/>
		<path class="st7" d="M128.1,252.9c-0.1-14,16-19.2,32.9-22.8c-3.2-3.4-5.6-7.1-5.7-11.5c-0.1-14.7,21.4-23.5,36-23.5
			c4.5,0,11.4,0.8,11.4,5.1c0,1.8-1.2,3.4-2.6,3.4c-1.4,0-2.8-0.7-4.7-0.7c-8.7,0-21.6,4.2-21.6,12.6c0,3.5,2.5,6.9,5.8,10
			c15.5-4.3,28.8-10.6,28.7-25.2c0-4.6-0.7-7.5-0.8-8.8s1.2-1.9,2.6-1.9c6.1,0,8.8,9.1,8.8,15.2c0.1,15.4-13.5,22.9-32.5,26.9
			c4.6,4.2,8.6,8.7,8.6,14c0.1,14.3-22.6,22.5-39.9,22.7C142.9,268.4,128.2,263.8,128.1,252.9z M167.3,235.5
			c-11.7,2.6-20.8,6.2-20.7,15.3c0,6.1,5.1,9.9,13.7,9.9c8,0,16.7-5.4,16.7-12.4C177,243.7,172.2,239.7,167.3,235.5z"/>
		<path class="st7" d="M248.6,211.2c3.9-0.2,11.1,4,11.3,7.1c0.1,1-0.4,1.3-1.4,3.1c-1.7,2.9-3.2,5.6-4.4,8.3c3.6-0.5,7-0.8,10.2-1
			c2.6-0.1,3.7,0.8,3.8,2c0.2,1.9-2.1,4.8-3.7,5L250,238c-3.2,7.1-8.1,20.2-11.9,28.9c-1,2.1-2.2,3.2-3.5,3.2c-3.5,0.2-7.6-6-7.9-10
			c-0.1-0.7,0.1-1.2,0.2-1.8c1-3.5,4.7-13.3,6.2-17.3c-7.5,1.4-15,3-21.3,4.7c-0.6,0.2-1.3,0.2-2,0.2c-5.4,0.3-12.8-3.3-13.2-7.7
			c-0.1-1.1,0.2-2.1,1.1-3.2c16-20.9,37.4-41.1,53.8-53.6c0.5-0.4,1.3-0.6,1.9-0.7c3.6-0.2,9.1,3.9,9.3,6.8c0.1,0.7-0.2,1.4-0.8,1.8
			c-17.6,13.4-34.9,29.4-48.7,47.1c7.8-1.8,15.9-3.3,23.7-4.6c3.2-7.4,6.6-14.5,9.5-19.7C246.9,211.6,247.7,211.3,248.6,211.2z"/>
		<path class="st7" d="M135.3,213.7c6.7-12.2,35.8-29.8,40.6-28.2c4.7,1.6,5.3,1.3,5.6,5.5S135.3,213.7,135.3,213.7z"/>
		<polygon class="st7" points="206.9,180.7 271.1,106.2 278.9,106.2 215.6,180.9 		"/>
		<g>
			<path class="st7" d="M334.5,12.8H229c-12.6,0-22,11.3-22,25v138.9l43-50.2V49.8h10.5h5.8h42.8h3.4H325v131h45v-137L334.5,12.8z"
				/>
		</g>
		<polygon class="st7" points="218,180.7 266.7,125.1 274.5,125.1 226.7,180.8 		"/>
	</g>
</g>
<g id="Guides" class="st9">
</g>
</svg>
