<?xml version="1.0" encoding="utf-8"?>
<!-- Generator: Adobe Illustrator 19.1.0, SVG Export Plug-In . SVG Version: 6.00 Build 0)  -->
<svg version="1.1" xmlns="http://www.w3.org/2000/svg" xmlns:xlink="http://www.w3.org/1999/xlink" x="0px" y="0px"
	 viewBox="0 0 400 300" style="enable-background:new 0 0 400 300;" xml:space="preserve">
<style type="text/css">
	.st0{fill:url(#SVGID_1_);}
	.st1{fill:url(#SVGID_2_);}
	.st2{fill:url(#SVGID_3_);}
	.st3{fill:url(#SVGID_4_);}
	.st4{fill:url(#SVGID_5_);}
	.st5{fill:url(#SVGID_6_);}
	.st6{fill:url(#SVGID_7_);}
	.st7{fill:#FF00FF;}
	.st8{fill:#FF00FF;stroke:#FF00FF;stroke-miterlimit:10;}
	.st9{display:none;}
</style>
<g id="Layer_1">
</g>
<g id="MN84">
	<g id="outrunners_2_">
		<polygon class="st7" points="269.1,107.5 264.3,122.1 261.9,108.3 247.6,110.1 225.7,178.2 240.6,176.4 252.6,138.3 255.2,150.4 
			247.1,175.6 262,173.8 283.4,105.8 		"/>
		<polygon class="st7" points="232.3,111.8 227.5,126.4 225.1,112.7 210.8,114.4 188.9,182.6 203.8,180.7 215.8,142.6 218.4,154.7 
			210.3,179.9 225.2,178.1 246.6,110.1 		"/>
		<path class="st7" d="M309.6,114.6l4.1-12.4c0,0-16.9,2.1-17,2.1l0,0l-11.3,1.4l-21.9,67.8l8.4-1l0,0l20-2.4l4.6-13.4
			c0,0-8.1,0.7-13.5,1.2l2.6-8.4l13.3-1.4l4.4-12.9c0,0-8.9,0.7-13.6,1.1l6.2-20.1L309.6,114.6z"/>
		<polygon class="st7" points="208.6,114.7 194.3,116.4 176.9,172.5 172.8,172.9 190.5,116.6 176.2,118.3 154.3,187.1 187.3,183 		
			"/>
		<polygon class="st7" points="133.4,123.4 119.1,125.2 101.7,181.2 97.6,181.7 115.3,125.4 101,127.1 79,196.4 111.3,192.4 		"/>
		<path class="st7" d="M352.2,193.2l-22.7-72.1l11.6-12.9l1.9-9.4l-14,1.6l0,0l-14.3,1.7l-21.9,67.8l15.3-1.9l11.9-38.5L352.2,193.2
			z M334.6,107.9l-11.3,10.5l2.7-8.7C330.4,108.8,334.6,107.9,334.6,107.9z"/>
		<path class="st7" d="M392.9,87.2L97.4,115.8c0,0-70,86.9-69.6,86.9c0.4-0.1,49-6.1,49-6.1l23-70.5l35.6-4.7l-23,70.9l13.8-1.7
			l22.1-70.9L392.9,87.2z M70.4,184.8l-15.7,2.1L79,155.7L70.4,184.8z"/>
		<polygon class="st7" points="386.7,93.7 382.5,105.8 358.7,107.9 378.4,175.9 27.9,205.9 362.3,163.2 341.7,110.1 344.4,98.8 		
			"/>
		<path class="st7" d="M65.3,143.6l2.2-6.8c0,0-9.2,1.1-9.3,1.1l0,0l-6.2,0.7l-11.8,36.5l15.4-1.4l2.5-7.3c0,0-4.4,0.4-7.4,0.6
			l1.4-4.6l7.2-0.8l2.4-7c0,0-4.9,0.4-7.4,0.6l3.4-11L65.3,143.6z"/>
		<polygon class="st7" points="31.8,140.5 19.5,177.7 12.7,178.4 24.8,141.4 		"/>
		<polygon class="st7" points="43.9,139.8 37.8,158.7 34.1,159.2 40.2,140.2 33.3,141.1 21.5,177.4 28.4,176.7 31.9,165.8 
			35.6,165.5 32.1,176.2 39,175.5 50.8,138.9 		"/>
		<polygon class="st7" points="87.1,133.6 7.1,144 13.2,137.4 94.3,127.7 		"/>
		<path class="st7" d="M186.4,212.8l-22.7-72.1l11.6-12.9l1.9-9.4l-14,1.6l0,0l-14.3,1.7l-21.7,68.7l15.3-1.9l11.7-39.4L186.4,212.8
			z M168.9,127.5L157.6,138l2.7-8.7C164.6,128.4,168.9,127.5,168.9,127.5z"/>
	</g>
</g>
<g id="Guides" class="st9">
</g>
</svg>
